# xmcd
#
# Track frame offsets:
#       150
#       13022
#       26009
#       34239
#       47442
#       61669
#       73973
#       87977
#       101529
#       114806
#       139764
#       153991
#       169943
#       183812
#       190902
#       201973
#       216152
#       225856
#       239492
#       253140
#       264701
#       274469
#
# Disc length: 3768 seconds
#
# Revision: 2
# Processed by: cddbd v1.5PL3 Copyright (c) Steve Scherf et al.
# Submitted via: WhereIsIt 3.58
#
DISCID=370eb616
DTITLE=Leadbelly - Nothing But The Blues - Death Letter Blues - CD 2
DYEAR=1900
DGENRE=Blues
TTITLE0=Good Morning Blues
TTITLE1=Rock Island Line
TTITLE2=On Monday
TTITLE3=See See Raider
TTITLE4=Alberta
TTITLE5=Eagle Rock Rag
TTITLE6=Whoa Back Buck
TTITLE7=Pick A Ball Of Cotton
TTITLE8=Grey Goose
TTITLE9=Bourgois Blues
TTITLE10=Pigmeat
TTITLE11=Leaving Blues
TTITLE12=Shorty George
TTITLE13=Take This Hammer
TTITLE14=I Got A Pretty Flower
TTITLE15=Black Snake Moan
TTITLE16=Corn Bread Rough
TTITLE17=You Don't My Mind
TTITLE18=Alabama Bound
TTITLE19=Little Sally Walker
TTITLE20=Midnight Special
TTITLE21=Irene
EXTD=
EXTT0=
EXTT1=
EXTT2=
EXTT3=
EXTT4=
EXTT5=
EXTT6=
EXTT7=
EXTT8=
EXTT9=
EXTT10=
EXTT11=
EXTT12=
EXTT13=
EXTT14=
EXTT15=
EXTT16=
EXTT17=
EXTT18=
EXTT19=
EXTT20=
EXTT21=
PLAYORDER=
